<svg width="78" height="164" viewBox="0 0 78 164" fill="none" xmlns="http://www.w3.org/2000/svg">
<path d="M77.9974 134.258L77.9117 104.792H77.8927L77.9783 75.3446L77.8736 75.4023L77.9307 75.3062L52.5778 60.5395L77.9688 45.744L77.8832 16.2778L77.8927 16.2586L51.7308 0.876953L0.777344 30.468V90.6398L25.2643 104.82L0.805894 118.972L0.891546 148.448L27.1772 163.897L27.1962 163.858L77.9974 134.258ZM75.837 76.6032L53.8054 89.5253L28.3382 74.6721L50.4269 61.7981L75.837 76.6032ZM51.7212 3.38451L75.7609 17.5267L28.1574 45.2732L3.99405 31.1021L51.7212 3.38451ZM2.92816 32.9756L27.0915 47.1466L27.1677 73.99L2.92816 59.867V32.9756ZM2.92816 89.3716V62.3649L52.73 91.4084L52.6539 118.357L27.9481 103.869L27.9195 103.85L27.4246 103.562L2.93768 89.3812L2.92816 89.3716ZM3.02333 147.189L2.94719 121.48L27.1011 135.641L27.1772 161.389L3.02333 147.199V147.189ZM4.01309 119.597L27.4056 106.05L51.4833 120.173L28.1765 133.758L4.03212 119.606L4.01309 119.597Z" fill="#051A21"/>
</svg>
