<svg width="305" height="105" viewBox="0 0 305 105" fill="none" xmlns="http://www.w3.org/2000/svg">
<path d="M83.3411 61.2081C83.715 62.1993 84.325 63.0418 85.0038 63.7258C86.2139 64.945 88.2603 66.1642 91.6644 66.1642C96.5837 66.1642 98.0988 64.717 98.0988 62.348C98.0988 59.523 92.0383 58.6904 86.2139 57.3919C80.2322 56.0934 74.2504 52.971 74.2504 45.5666C74.2504 39.4607 79.9272 33.7414 90.533 33.7414C98.6399 33.7414 103.254 36.943 105.753 40.0753C107.19 41.909 108.173 43.9708 108.705 46.3299H98.0988C97.7938 45.6459 97.3412 44.9521 96.7312 44.4267C95.5998 43.5148 93.7797 42.5236 90.5232 42.5236C86.6567 42.5236 85.2203 44.0501 85.2203 45.5766C85.2203 48.4015 91.202 49.2342 97.1838 50.5327C103.018 51.8311 109.069 54.9535 109.069 62.3579C109.069 68.7711 102.939 74.9464 91.6546 74.9464C83.4001 74.9464 78.4022 71.5861 75.7557 68.0772C74.1618 66.0155 73.0304 63.7258 72.3516 61.2081H83.3313H83.3411Z" fill="#051A21"/>
<path d="M112.118 34.8813H117.037V26.4857H127.643V34.8813H138.544V44.0402H127.643V64.6377H139.007V73.7966H117.047V44.0402H112.128V34.8813H112.118Z" fill="#051A21"/>
<path d="M160.957 33.7414C165.197 33.7414 168.08 35.2679 170.117 36.7944C171.248 37.7063 172.242 38.6975 173.068 39.8473H173.442V34.8912H184.048V73.7966H173.442V68.8405H173.068C172.232 69.9804 171.248 70.9815 170.117 71.8934C168.07 73.4199 165.197 74.9464 160.957 74.9464C151.109 74.9464 143.159 66.9373 143.159 54.3488C143.159 41.7604 151.109 33.7513 160.957 33.7513V33.7414ZM163.603 65.7875C169.359 65.7875 173.452 61.664 173.452 54.3389C173.452 47.0138 169.359 42.8904 163.603 42.8904C158.232 42.8904 154.139 47.0138 154.139 54.3389C154.139 61.664 158.232 65.7875 163.603 65.7875Z" fill="#051A21"/>
<path d="M210.936 33.7414C219.191 33.7414 224.189 37.4783 226.993 41.3738C228.655 43.5842 229.875 46.1812 230.623 49.0062H219.643C219.191 47.8663 218.581 46.8651 217.823 45.9532C216.387 44.4267 214.34 42.9003 210.936 42.9003C205.712 42.9003 201.088 47.4797 201.088 54.3488C201.088 61.218 205.712 65.7974 210.936 65.7974C214.34 65.7974 216.387 64.2709 217.823 62.7445C218.581 61.8325 219.191 60.8413 219.643 59.6915H230.623C229.944 62.5165 228.803 65.1036 227.14 67.3239C224.336 71.2194 219.417 74.9563 210.936 74.9563C199.12 74.9563 190.108 65.7974 190.108 54.3588C190.108 42.9201 199.12 33.7612 210.936 33.7612V33.7414Z" fill="#051A21"/>
<path d="M236.684 20.3897H247.29V49.3828H251.835L262.057 34.8912H273.794L261.299 52.8224L274.926 73.8065H262.805L252.956 58.5516H247.28V73.8065H236.674V20.3897H236.684Z" fill="#051A21"/>
<path d="M289.319 73.7966V44.0303H304.086V34.8714H278.723V73.7966" fill="#051A21"/>
<path d="M48.7398 85.696L48.6859 66.8526H48.6739L48.7279 48.0215L48.6619 48.0584L48.6979 47.9969L32.725 38.5537L48.7219 29.0921L48.6679 10.2487L48.6739 10.2364L32.1914 0.399994L0.0898438 19.3233V57.8026L15.5171 66.871L0.107831 75.921L0.161793 94.7706L16.7222 104.65L16.7342 104.625L48.7398 85.696ZM47.3788 48.8264L33.4985 57.0899L17.4537 47.5914L31.37 39.3586L47.3788 48.8264ZM32.1854 2.00356L47.3308 11.0474L17.3398 28.791L2.11643 19.7288L32.1854 2.00356ZM1.4449 20.9268L16.6683 29.9891L16.7162 47.1552L1.4449 38.1237V20.9268ZM1.4449 56.9916V39.7211L32.821 58.2941L32.773 75.5278L17.2079 66.2628L17.1899 66.2505L16.8781 66.0662L1.45089 56.9978L1.4449 56.9916ZM1.50485 93.9657L1.45689 77.5246L16.6743 86.5807L16.7222 103.046L1.50485 93.9719V93.9657ZM2.12842 76.3204L16.8661 67.6575L32.0355 76.689L17.3518 85.3765L2.14041 76.3265L2.12842 76.3204Z" fill="#051A21"/>
</svg>
