<svg width="314" height="81" viewBox="0 0 314 81" fill="none" xmlns="http://www.w3.org/2000/svg">
<path d="M164.328 48.872C164.328 55.256 159.624 59 152.04 59H138.552V24.536H151.512C158.76 24.536 163.224 27.8 163.224 33.704C163.224 36.872 161.448 39.416 158.376 41C162.216 42.344 164.328 45.08 164.328 48.872ZM150.936 30.296H145.176V38.312H150.936C154.488 38.312 156.312 36.776 156.312 34.28C156.312 31.832 154.488 30.296 150.936 30.296ZM151.464 44.12H145.176V53.24H151.464C155.4 53.24 157.464 51.512 157.464 48.584C157.464 45.848 155.4 44.12 151.464 44.12ZM178.27 59.432C170.59 59.432 165.454 54.104 165.454 46.088C165.454 38.456 170.782 32.888 178.174 32.888C186.286 32.888 191.662 39.464 190.462 47.816H172.27C172.702 51.992 174.718 54.296 178.126 54.296C181.054 54.296 183.022 52.856 183.79 50.312H190.414C188.974 56.12 184.51 59.432 178.27 59.432ZM178.03 37.784C174.91 37.784 172.942 39.8 172.366 43.592H183.406C183.214 40.04 181.198 37.784 178.03 37.784ZM208.76 52.52V58.328C207.128 59.144 205.592 59.48 203.623 59.48C198.343 59.48 195.031 56.456 195.031 50.696V39.08H189.847V33.368H195.031V25.784H201.656V33.368H209V39.08H201.656V49.16C201.656 52.136 203 53.336 205.399 53.336C206.648 53.336 207.8 53.048 208.76 52.52ZM226.417 59V55.832C224.737 58.232 222.193 59.48 218.689 59.48C213.361 59.48 209.809 56.36 209.809 51.56C209.809 46.568 213.841 43.88 221.329 43.88C222.769 43.88 224.017 43.976 225.601 44.168V42.632C225.601 39.752 223.969 38.072 221.185 38.072C218.305 38.072 216.577 39.752 216.337 42.632H210.337C210.721 36.728 214.993 32.888 221.185 32.888C227.905 32.888 231.841 36.584 231.841 42.872V59H226.417ZM216.097 51.368C216.097 53.528 217.633 54.872 220.129 54.872C223.537 54.872 225.601 53 225.601 50.024V48.2C224.017 47.96 222.913 47.864 221.761 47.864C217.969 47.864 216.097 49.064 216.097 51.368Z" fill="black"/>
<path d="M90.3751 57.3107C90.2984 58.0637 90.0558 58.7903 89.6647 59.4384C89.2737 60.0864 88.7439 60.6398 88.1135 61.0587C86.8363 61.9102 85.2539 62.1562 83.8093 62.1562C82.5476 62.1491 81.2918 61.9837 80.0712 61.6641C79.5683 61.5234 79.1419 61.1887 78.8857 60.7337C78.6296 60.2786 78.5647 59.7405 78.7054 59.2376C78.846 58.7347 79.1807 58.3083 79.6357 58.0521C80.0908 57.796 80.6289 57.7311 81.1318 57.8718C82.2097 58.1671 84.8232 58.5362 85.943 57.7832C86.1595 57.638 86.3933 57.4091 86.4696 56.816C86.5533 56.1589 86.2949 55.807 83.3245 54.9482C81.0236 54.2837 77.1722 53.1689 77.6644 49.2609C77.7411 48.5228 77.9794 47.8106 78.3621 47.1748C78.7449 46.5389 79.2628 45.9951 79.8792 45.5818C82.793 43.6131 87.4368 44.7673 87.9585 44.9026C88.4637 45.0354 88.8954 45.3635 89.1587 45.8146C89.422 46.2658 89.4953 46.803 89.3624 47.3082C89.2296 47.8134 88.9016 48.2451 88.4504 48.5084C87.9993 48.7717 87.462 48.845 86.9569 48.7121C85.8519 48.4242 83.2089 48.0821 82.0768 48.85C81.9284 48.9501 81.8063 49.0844 81.7206 49.2415C81.635 49.3987 81.5883 49.5742 81.5846 49.7531C81.5551 49.9746 81.5502 50.0214 81.8578 50.2207C82.4263 50.5874 83.4451 50.8802 84.4295 51.1657C86.8511 51.8621 90.9264 53.0508 90.3751 57.3107ZM107.156 30.6562V62.1562C107.156 63.2005 106.741 64.2021 106.003 64.9405C105.265 65.6789 104.263 66.0938 103.219 66.0938H97.3125C96.7904 66.0938 96.2896 65.8863 95.9204 65.5171C95.5512 65.1479 95.3438 64.6471 95.3438 64.125C95.3438 63.6029 95.5512 63.1021 95.9204 62.7329C96.2896 62.3637 96.7904 62.1562 97.3125 62.1562H103.219V32.625H91.4062C90.8841 32.625 90.3833 32.4176 90.0141 32.0484C89.6449 31.6792 89.4375 31.1784 89.4375 30.6562V18.8438H67.7812V36.5625C67.7812 37.0846 67.5738 37.5854 67.2046 37.9546C66.8354 38.3238 66.3346 38.5312 65.8125 38.5312C65.2904 38.5312 64.7896 38.3238 64.4204 37.9546C64.0512 37.5854 63.8438 37.0846 63.8438 36.5625V18.8438C63.8438 17.7995 64.2586 16.7979 64.997 16.0595C65.7354 15.3211 66.737 14.9063 67.7812 14.9063H91.4062C91.6649 14.906 91.921 14.9568 92.16 15.0556C92.399 15.1544 92.6162 15.2993 92.7991 15.4821L106.58 29.2634C106.763 29.4463 106.908 29.6635 107.007 29.9025C107.106 30.1415 107.156 30.3976 107.156 30.6562ZM93.375 28.6875H100.435L93.375 21.6271V28.6875ZM73.6875 44.4375H63.8438C63.3216 44.4375 62.8208 44.6449 62.4516 45.0141C62.0824 45.3833 61.875 45.8841 61.875 46.4062C61.875 46.9284 62.0824 47.4292 62.4516 47.7984C62.8208 48.1676 63.3216 48.375 63.8438 48.375H66.7969V60.1875C66.7969 60.7096 67.0043 61.2104 67.3735 61.5796C67.7427 61.9488 68.2435 62.1562 68.7656 62.1562C69.2878 62.1562 69.7885 61.9488 70.1577 61.5796C70.527 61.2104 70.7344 60.7096 70.7344 60.1875V48.375H73.6875C74.2096 48.375 74.7104 48.1676 75.0796 47.7984C75.4488 47.4292 75.6562 46.9284 75.6562 46.4062C75.6562 45.8841 75.4488 45.3833 75.0796 45.0141C74.7104 44.6449 74.2096 44.4375 73.6875 44.4375Z" fill="black"/>
</svg>
