<svg width="314" height="81" viewBox="0 0 314 81" fill="none" xmlns="http://www.w3.org/2000/svg">
<path d="M104.816 58.72C95.12 58.72 87.536 50.848 87.536 40.72C87.536 30.64 95.12 22.816 104.816 22.816C113.888 22.816 120.992 28.864 122.192 37.696H114.464C113.648 32.752 109.808 29.344 104.912 29.344C99.008 29.344 95.024 34 95.024 40.72C95.024 47.488 99.008 52.192 104.912 52.192C109.808 52.192 113.6 48.736 114.464 43.792H122.192C120.992 52.72 113.888 58.72 104.816 58.72ZM136.118 58.48C128.678 58.48 123.11 52.624 123.11 45.184C123.11 37.696 128.678 31.888 136.118 31.888C143.558 31.888 149.126 37.696 149.126 45.184C149.126 52.624 143.558 58.48 136.118 58.48ZM136.118 52.576C139.43 52.576 142.262 49.936 142.262 45.184C142.262 40.432 139.43 37.84 136.118 37.84C132.806 37.84 129.974 40.432 129.974 45.184C129.974 49.936 132.806 52.576 136.118 52.576ZM158.136 44.032V58H151.464V32.368H157.608V36.016C159.48 33.472 162.12 31.888 165.48 31.888C170.616 31.888 174.168 35.248 174.168 41.44V58H167.544V43.696C167.544 39.904 166.056 37.792 163.032 37.792C160.392 37.792 158.136 39.904 158.136 44.032ZM188.797 58.48C181.405 58.48 176.317 53.008 176.317 45.184C176.317 37.504 181.597 31.888 188.797 31.888C195.469 31.888 200.413 36.4 201.229 43.312H194.221C193.885 39.904 191.821 37.792 188.797 37.792C185.341 37.792 183.133 40.624 183.133 45.184C183.133 49.792 185.293 52.576 188.797 52.576C191.869 52.576 193.837 50.56 194.221 47.056H201.229C200.461 54.112 195.661 58.48 188.797 58.48ZM214.635 58.432C206.955 58.432 201.819 53.104 201.819 45.088C201.819 37.456 207.147 31.888 214.539 31.888C222.651 31.888 228.027 38.464 226.827 46.816H208.635C209.067 50.992 211.083 53.296 214.491 53.296C217.419 53.296 219.387 51.856 220.155 49.312H226.779C225.339 55.12 220.875 58.432 214.635 58.432ZM214.395 36.784C211.275 36.784 209.307 38.8 208.731 42.592H219.771C219.579 39.04 217.563 36.784 214.395 36.784ZM254.96 45.184C254.96 52.768 250.496 58.48 243.584 58.48C240.56 58.48 237.968 57.184 236.048 54.688V67.264H229.376V32.368H235.52V36.112C237.488 33.376 240.32 31.888 243.584 31.888C250.496 31.888 254.96 37.648 254.96 45.184ZM248.096 45.184C248.096 40.384 245.36 37.792 242.096 37.792C238.832 37.792 236.096 40.336 236.096 45.184C236.096 50.032 238.832 52.528 242.096 52.528C245.36 52.528 248.096 50.08 248.096 45.184ZM272.97 51.52V57.328C271.338 58.144 269.802 58.48 267.834 58.48C262.554 58.48 259.242 55.456 259.242 49.696V38.08H254.058V32.368H259.242V24.784H265.866V32.368H273.21V38.08H265.866V48.16C265.866 51.136 267.21 52.336 269.61 52.336C270.858 52.336 272.01 52.048 272.97 51.52ZM296.825 49.792C296.825 55.168 292.745 58.48 285.449 58.48C278.153 58.48 274.073 54.976 273.545 49.264H279.929C279.977 51.904 282.233 53.584 285.545 53.584C288.137 53.584 290.105 52.768 290.105 50.944C290.105 49.312 289.049 48.64 286.601 48.16L281.993 47.296C277.385 46.48 274.601 43.936 274.601 39.952C274.601 35.2 278.681 31.888 285.065 31.888C291.497 31.888 295.913 35.296 296.393 40.816H290.009C289.769 38.32 287.897 36.784 285.065 36.784C282.617 36.784 280.985 37.696 280.985 39.328C280.985 40.864 282.041 41.488 284.345 41.92L289.289 42.832C294.281 43.792 296.825 46.096 296.825 49.792Z" fill="black"/>
<path d="M62 20H44C42.4475 20 40.9164 20.3615 39.5279 21.0557C38.1393 21.75 36.9315 22.758 36 24C35.0685 22.758 33.8607 21.75 32.4721 21.0557C31.0836 20.3615 29.5525 20 28 20H10C9.46957 20 8.96086 20.2107 8.58579 20.5858C8.21071 20.9609 8 21.4696 8 22V58C8 58.5304 8.21071 59.0391 8.58579 59.4142C8.96086 59.7893 9.46957 60 10 60H28C29.5913 60 31.1174 60.6321 32.2426 61.7574C33.3679 62.8826 34 64.4087 34 66C34 66.5304 34.2107 67.0391 34.5858 67.4142C34.9609 67.7893 35.4696 68 36 68C36.5304 68 37.0391 67.7893 37.4142 67.4142C37.7893 67.0391 38 66.5304 38 66C38 64.4087 38.6321 62.8826 39.7574 61.7574C40.8826 60.6321 42.4087 60 44 60H62C62.5304 60 63.0391 59.7893 63.4142 59.4142C63.7893 59.0391 64 58.5304 64 58V22C64 21.4696 63.7893 20.9609 63.4142 20.5858C63.0391 20.2107 62.5304 20 62 20ZM28 56H12V24H28C29.5913 24 31.1174 24.6321 32.2426 25.7574C33.3679 26.8826 34 28.4087 34 30V58C32.2707 56.6987 30.1643 55.9966 28 56ZM60 56H44C41.8357 55.9966 39.7293 56.6987 38 58V30C38 28.4087 38.6321 26.8826 39.7574 25.7574C40.8826 24.6321 42.4087 24 44 24H60V56ZM44 30H54C54.5304 30 55.0391 30.2107 55.4142 30.5858C55.7893 30.9609 56 31.4696 56 32C56 32.5304 55.7893 33.0391 55.4142 33.4142C55.0391 33.7893 54.5304 34 54 34H44C43.4696 34 42.9609 33.7893 42.5858 33.4142C42.2107 33.0391 42 32.5304 42 32C42 31.4696 42.2107 30.9609 42.5858 30.5858C42.9609 30.2107 43.4696 30 44 30ZM56 40C56 40.5304 55.7893 41.0391 55.4142 41.4142C55.0391 41.7893 54.5304 42 54 42H44C43.4696 42 42.9609 41.7893 42.5858 41.4142C42.2107 41.0391 42 40.5304 42 40C42 39.4696 42.2107 38.9609 42.5858 38.5858C42.9609 38.2107 43.4696 38 44 38H54C54.5304 38 55.0391 38.2107 55.4142 38.5858C55.7893 38.9609 56 39.4696 56 40ZM56 48C56 48.5304 55.7893 49.0391 55.4142 49.4142C55.0391 49.7893 54.5304 50 54 50H44C43.4696 50 42.9609 49.7893 42.5858 49.4142C42.2107 49.0391 42 48.5304 42 48C42 47.4696 42.2107 46.9609 42.5858 46.5858C42.9609 46.2107 43.4696 46 44 46H54C54.5304 46 55.0391 46.2107 55.4142 46.5858C55.7893 46.9609 56 47.4696 56 48Z" fill="black"/>
</svg>
