<svg width="314" height="81" viewBox="0 0 314 81" fill="none" xmlns="http://www.w3.org/2000/svg">
<path d="M171.328 48.872C171.328 55.256 166.624 59 159.04 59H145.552V24.536H158.512C165.76 24.536 170.224 27.8 170.224 33.704C170.224 36.872 168.448 39.416 165.376 41C169.216 42.344 171.328 45.08 171.328 48.872ZM157.936 30.296H152.176V38.312H157.936C161.488 38.312 163.312 36.776 163.312 34.28C163.312 31.832 161.488 30.296 157.936 30.296ZM158.464 44.12H152.176V53.24H158.464C162.4 53.24 164.464 51.512 164.464 48.584C164.464 45.848 162.4 44.12 158.464 44.12ZM189.734 48.2V33.368H196.358V59H190.262V55.64C188.87 57.896 186.038 59.48 182.774 59.48C177.638 59.48 173.894 56.36 173.894 49.688V33.368H180.566V48.392C180.566 51.992 182.342 53.576 185.03 53.576C187.43 53.576 189.734 51.656 189.734 48.2ZM208.161 27.416C208.161 29.672 206.337 31.352 203.697 31.352C201.105 31.352 199.281 29.672 199.281 27.416C199.281 25.064 201.105 23.384 203.697 23.384C206.337 23.384 208.161 25.064 208.161 27.416ZM207.105 59H200.433V33.368H207.105V59ZM217.842 59H211.122V24.536H217.842V59ZM220.225 46.184C220.225 38.6 224.689 32.888 231.601 32.888C234.673 32.888 237.265 34.232 239.185 36.68V24.536H245.809V59H239.713V55.304C237.697 57.992 234.913 59.48 231.601 59.48C224.689 59.48 220.225 53.672 220.225 46.184ZM227.089 46.184C227.089 50.984 229.825 53.528 233.089 53.528C236.401 53.528 239.137 50.936 239.137 46.088C239.137 41.24 236.353 38.792 233.089 38.792C229.825 38.792 227.089 41.288 227.089 46.184Z" fill="black"/>
<path d="M116.125 19.2504H105.25C104.289 19.2504 103.367 19.6324 102.687 20.3122C102.007 20.992 101.625 21.914 101.625 22.8754V59.1254C101.625 60.0869 102.007 61.0089 102.687 61.6887C103.367 62.3685 104.289 62.7504 105.25 62.7504H116.125C117.086 62.7504 118.008 62.3685 118.688 61.6887C119.368 61.0089 119.75 60.0869 119.75 59.1254V22.8754C119.75 21.914 119.368 20.992 118.688 20.3122C118.008 19.6324 117.086 19.2504 116.125 19.2504ZM116.125 59.1254H105.25V51.8754H110.688C111.168 51.8754 111.629 51.6845 111.969 51.3446C112.309 51.0047 112.5 50.5437 112.5 50.0629C112.5 49.5822 112.309 49.1212 111.969 48.7813C111.629 48.4414 111.168 48.2504 110.688 48.2504H105.25V42.8129H110.688C111.168 42.8129 111.629 42.622 111.969 42.2821C112.309 41.9422 112.5 41.4812 112.5 41.0004C112.5 40.5197 112.309 40.0587 111.969 39.7188C111.629 39.3789 111.168 39.1879 110.688 39.1879H105.25V33.7504H110.688C111.168 33.7504 111.629 33.5595 111.969 33.2196C112.309 32.8797 112.5 32.4187 112.5 31.9379C112.5 31.4572 112.309 30.9962 111.969 30.6563C111.629 30.3164 111.168 30.1254 110.688 30.1254H105.25V22.8754H116.125V59.1254ZM86.5948 17.9681C86.4265 17.7996 86.2266 17.6659 86.0066 17.5747C85.7865 17.4835 85.5507 17.4365 85.3125 17.4365C85.0743 17.4365 84.8385 17.4835 84.6184 17.5747C84.3984 17.6659 84.1985 17.7996 84.0302 17.9681L76.7802 25.2181C76.6119 25.3866 76.4785 25.5865 76.3875 25.8065C76.2965 26.0266 76.2498 26.2624 76.25 26.5004V59.1254C76.25 60.0869 76.6319 61.0089 77.3117 61.6887C77.9916 62.3685 78.9136 62.7504 79.875 62.7504H90.75C91.7114 62.7504 92.6334 62.3685 93.3133 61.6887C93.9931 61.0089 94.375 60.0869 94.375 59.1254V26.5004C94.3752 26.2624 94.3285 26.0266 94.2375 25.8065C94.1465 25.5865 94.0131 25.3866 93.8448 25.2181L86.5948 17.9681ZM79.875 51.8754V30.1254H83.5V51.8754H79.875ZM87.125 30.1254H90.75V51.8754H87.125V30.1254ZM85.3125 21.8129L90.0001 26.5004H80.6249L85.3125 21.8129ZM79.875 59.1254V55.5004H90.75V59.1254H79.875Z" fill="black"/>
</svg>
