<svg width="314" height="81" viewBox="0 0 314 81" fill="none" xmlns="http://www.w3.org/2000/svg">
<path d="M124.96 59H117.664V31.112H106.816V24.536H135.856V31.112H124.96V59ZM151.625 48.2V33.368H158.249V59H152.153V55.64C150.761 57.896 147.929 59.48 144.665 59.48C139.529 59.48 135.785 56.36 135.785 49.688V33.368H142.457V48.392C142.457 51.992 144.233 53.576 146.921 53.576C149.321 53.576 151.625 51.656 151.625 48.2ZM178.26 52.52V58.328C176.628 59.144 175.092 59.48 173.123 59.48C167.843 59.48 164.531 56.456 164.531 50.696V39.08H159.347V33.368H164.531V25.784H171.156V33.368H178.5V39.08H171.156V49.16C171.156 52.136 172.5 53.336 174.899 53.336C176.148 53.336 177.3 53.048 178.26 52.52ZM191.419 59.48C183.979 59.48 178.411 53.624 178.411 46.184C178.411 38.696 183.979 32.888 191.419 32.888C198.859 32.888 204.427 38.696 204.427 46.184C204.427 53.624 198.859 59.48 191.419 59.48ZM191.419 53.576C194.731 53.576 197.563 50.936 197.563 46.184C197.563 41.432 194.731 38.84 191.419 38.84C188.107 38.84 185.275 41.432 185.275 46.184C185.275 50.936 188.107 53.576 191.419 53.576ZM213.437 46.568V59H206.765V33.368H212.909V38.312C214.781 35.048 218.765 33.08 222.893 33.08V39.992C217.229 39.56 213.437 40.904 213.437 46.568ZM232.167 27.416C232.167 29.672 230.343 31.352 227.703 31.352C225.111 31.352 223.287 29.672 223.287 27.416C223.287 25.064 225.111 23.384 227.703 23.384C230.343 23.384 232.167 25.064 232.167 27.416ZM231.111 59H224.439V33.368H231.111V59ZM250.392 59V55.832C248.712 58.232 246.168 59.48 242.664 59.48C237.336 59.48 233.784 56.36 233.784 51.56C233.784 46.568 237.816 43.88 245.304 43.88C246.744 43.88 247.992 43.976 249.576 44.168V42.632C249.576 39.752 247.944 38.072 245.16 38.072C242.28 38.072 240.552 39.752 240.312 42.632H234.312C234.696 36.728 238.968 32.888 245.16 32.888C251.88 32.888 255.816 36.584 255.816 42.872V59H250.392ZM240.072 51.368C240.072 53.528 241.608 54.872 244.104 54.872C247.512 54.872 249.576 53 249.576 50.024V48.2C247.992 47.96 246.888 47.864 245.736 47.864C241.944 47.864 240.072 49.064 240.072 51.368ZM266.365 59H259.645V24.536H266.365V59Z" fill="black"/>
<path d="M61.9968 30.9067C60.0012 30.9067 58.0504 31.4984 56.391 32.6072C54.7317 33.7159 53.4384 35.2918 52.6747 37.1355C51.911 38.9792 51.7112 41.008 52.1005 42.9653C52.4899 44.9227 53.4509 46.7206 54.862 48.1317C56.2731 49.5428 58.071 50.5038 60.0283 50.8932C61.9857 51.2825 64.0145 51.0827 65.8582 50.319C67.7019 49.5553 69.2778 48.262 70.3865 46.6027C71.4953 44.9433 72.087 42.9925 72.087 40.9968C72.0843 38.3216 71.0203 35.7568 69.1286 33.8651C67.2369 31.9734 64.6721 30.9094 61.9968 30.9067ZM61.9968 47.7236C60.6664 47.7236 59.3659 47.3291 58.2596 46.59C57.1534 45.8508 56.2912 44.8002 55.7821 43.5711C55.273 42.3419 55.1397 40.9894 55.3993 39.6845C55.6589 38.3796 56.2995 37.181 57.2403 36.2403C58.181 35.2995 59.3796 34.6589 60.6845 34.3993C61.9894 34.1397 63.3419 34.273 64.5711 34.7821C65.8002 35.2912 66.8508 36.1534 67.59 37.2596C68.3291 38.3659 68.7236 39.6664 68.7236 40.9968C68.7236 42.7809 68.0149 44.4919 66.7534 45.7534C65.4919 47.0149 63.7809 47.7236 61.9968 47.7236ZM80.4955 41.4509C80.5039 41.1482 80.5039 40.8455 80.4955 40.5428L83.6319 36.6244C83.7964 36.4187 83.9102 36.1772 83.9642 35.9194C84.0183 35.6617 84.011 35.3948 83.943 35.1403C83.4289 33.2076 82.6597 31.352 81.6559 29.6223C81.5245 29.3959 81.342 29.2033 81.123 29.0599C80.9041 28.9165 80.6547 28.8262 80.3946 28.7961L75.4084 28.2412C75.201 28.0225 74.9908 27.8123 74.7778 27.6105L74.1892 22.6117C74.1589 22.3515 74.0682 22.1019 73.9244 21.8829C73.7806 21.664 73.5877 21.4816 73.3609 21.3504C71.6305 20.3484 69.775 19.5801 67.8429 19.0654C67.5882 18.9977 67.3213 18.9908 67.0635 19.0452C66.8057 19.0996 66.5643 19.2138 66.3588 19.3786L62.4509 22.4982C62.1482 22.4982 61.8455 22.4982 61.5428 22.4982L57.6244 19.3681C57.4187 19.2036 57.1772 19.0898 56.9194 19.0358C56.6617 18.9817 56.3948 18.989 56.1403 19.057C54.208 19.5721 52.3524 20.3411 50.6223 21.3441C50.3959 21.4755 50.2033 21.658 50.0599 21.877C49.9165 22.0959 49.8262 22.3453 49.7961 22.6054L49.2412 27.6C49.0225 27.8088 48.8123 28.019 48.6105 28.2307L43.6117 28.8045C43.3515 28.8348 43.1019 28.9255 42.8829 29.0692C42.664 29.213 42.4816 29.406 42.3504 29.6328C41.3484 31.3632 40.5801 33.2187 40.0654 35.1508C39.9977 35.4055 39.9908 35.6724 40.0452 35.9302C40.0996 36.188 40.2138 36.4294 40.3786 36.6349L43.4982 40.5428C43.4982 40.8455 43.4982 41.1482 43.4982 41.4509L40.3681 45.3693C40.2036 45.575 40.0898 45.8165 40.0358 46.0743C39.9817 46.332 39.989 46.5989 40.057 46.8534C40.5711 48.7861 41.3403 50.6417 42.3441 52.3714C42.4755 52.5978 42.658 52.7904 42.877 52.9338C43.0959 53.0772 43.3453 53.1675 43.6054 53.1976L48.5916 53.7525C48.8004 53.9712 49.0106 54.1814 49.2222 54.3832L49.8045 59.382C49.8348 59.6422 49.9255 59.8918 50.0692 60.1108C50.213 60.3297 50.406 60.5121 50.6328 60.6433C52.3632 61.6453 54.2187 62.4136 56.1508 62.9283C56.4055 62.996 56.6724 63.0029 56.9302 62.9485C57.188 62.8941 57.4294 62.7799 57.6349 62.6151L61.5428 59.4955C61.8455 59.5039 62.1482 59.5039 62.4509 59.4955L66.3693 62.6319C66.575 62.7964 66.8165 62.9102 67.0743 62.9642C67.332 63.0183 67.5989 63.011 67.8534 62.943C69.7861 62.4289 71.6417 61.6597 73.3714 60.6559C73.5978 60.5245 73.7904 60.342 73.9338 60.123C74.0772 59.9041 74.1675 59.6547 74.1976 59.3946L74.7525 54.4084C74.9712 54.201 75.1814 53.9908 75.3832 53.7778L80.382 53.1892C80.6422 53.1589 80.8918 53.0682 81.1108 52.9244C81.3297 52.7806 81.5121 52.5877 81.6433 52.3609C82.6453 50.6305 83.4136 48.775 83.9283 46.8429C83.996 46.5882 84.0029 46.3213 83.9485 46.0635C83.8941 45.8057 83.7799 45.5643 83.6151 45.3588L80.4955 41.4509ZM77.1111 40.0845C77.1468 40.6922 77.1468 41.3015 77.1111 41.9092C77.0861 42.3252 77.2164 42.7357 77.4769 43.0611L80.4598 46.7882C80.1175 47.876 79.6793 48.9312 79.1502 49.9414L74.3994 50.4795C73.9856 50.5255 73.6036 50.7232 73.3273 51.0345C72.9227 51.4896 72.4917 51.9206 72.0366 52.3252C71.7253 52.6015 71.5276 52.9835 71.4816 53.3973L70.954 58.1439C69.9439 58.6732 68.8887 59.1115 67.8008 59.4535L64.0716 56.4706C63.7732 56.2321 63.4025 56.1024 63.0206 56.1027H62.9197C62.312 56.1384 61.7027 56.1384 61.095 56.1027C60.679 56.0777 60.2685 56.208 59.9431 56.4685L56.2055 59.4535C55.1177 59.1112 54.0625 58.6729 53.0523 58.1439L52.5142 53.3994C52.4682 52.9856 52.2705 52.6036 51.9592 52.3273C51.5041 51.9227 51.0731 51.4917 50.6685 51.0366C50.3921 50.7253 50.0102 50.5276 49.5964 50.4816L44.8498 49.9519C44.3205 48.9418 43.8822 47.8866 43.5402 46.7987L46.5231 43.0695C46.7836 42.7441 46.9139 42.3336 46.8889 41.9176C46.8532 41.3099 46.8532 40.7006 46.8889 40.0929C46.9139 39.6769 46.7836 39.2664 46.5231 38.941L43.5402 35.2055C43.8825 34.1177 44.3207 33.0625 44.8498 32.0523L49.5943 31.5142C50.008 31.4682 50.39 31.2705 50.6664 30.9592C51.071 30.5041 51.502 30.0731 51.9571 29.6685C52.2696 29.392 52.4682 29.0091 52.5142 28.5943L53.0418 23.8498C54.0519 23.3205 55.1071 22.8822 56.195 22.5402L59.9242 25.5231C60.2495 25.7836 60.6601 25.9139 61.0761 25.8889C61.6838 25.8532 62.2931 25.8532 62.9008 25.8889C63.3168 25.9139 63.7273 25.7836 64.0527 25.5231L67.7882 22.5402C68.876 22.8825 69.9312 23.3207 70.9414 23.8498L71.4795 28.5943C71.5255 29.008 71.7232 29.39 72.0345 29.6664C72.4896 30.071 72.9206 30.502 73.3252 30.9571C73.6015 31.2684 73.9835 31.4661 74.3973 31.5121L79.1439 32.0397C79.6732 33.0498 80.1115 34.105 80.4535 35.1929L77.4706 38.9221C77.2076 39.2502 77.0771 39.6649 77.1048 40.0845H77.1111Z" fill="black"/>
</svg>
